<svg xmlns="http://www.w3.org/2000/svg" xmlns:xlink="http://www.w3.org/1999/xlink" version="1.1" data-diagram-type="STATE" style="width:418px;height:327px;background:#FFFFFF;" width="418px" height="327px" viewBox="0 0 418 327" zoomAndPan="magnify" preserveAspectRatio="none" contentStyleType="text/css"><?plantuml 1.2026.8?><defs/><g font-family="sans-serif" lengthAdjust="spacing"><g class="title" data-source-line="2"><text x="108.815" y="23.132" fill="#000" font-size="14" textLength="193.751" font-weight="700" font-family="Arial">Training calendar year states</text></g><g class="start_entity" data-qualified-name=".start." id="ent0001" data-source-line="6"><ellipse cx="124.266" cy="59.099" rx="10" ry="10" fill="#222" style="stroke:#222;stroke-width:1;"/></g><g class="entity" data-qualified-name="DRAFT" id="ent0002" data-source-line="6"><rect x="90.766" y="142.099" width="66.662" height="50" fill="#F1F1F1" style="stroke:#181818;stroke-width:0.5;" rx="12.5" ry="12.5"/><line x1="90.766" y1="168.197" x2="157.428" y2="168.197" style="stroke:#181818;stroke-width:0.5;"/><text x="100.766" y="160.23" fill="#000" font-size="14" textLength="46.662" font-family="Arial">DRAFT</text></g><g class="entity" data-qualified-name="CONFIRMED" id="ent0004" data-source-line="7"><rect x="71.766" y="261.099" width="104.772" height="50" fill="#F1F1F1" style="stroke:#181818;stroke-width:0.5;" rx="12.5" ry="12.5"/><line x1="71.766" y1="287.197" x2="176.538" y2="287.197" style="stroke:#181818;stroke-width:0.5;"/><text x="81.766" y="279.23" fill="#000" font-size="14" textLength="84.772" font-family="Arial">CONFIRMED</text></g><g class="entity" data-qualified-name="GMN8" id="ent0009" data-source-line="11"><path d="M175.766,147.099 L175.766,163.099 L158.023,167.099 L175.766,171.099 L175.766,186.996 A0,0 0 0 0 175.766,186.996 L370.913,186.996 A0,0 0 0 0 370.913,186.996 L370.913,157.099 L360.913,147.099 L175.766,147.099 A0,0 0 0 0 175.766,147.099" style="stroke:#181818;stroke-width:0.5;" fill="#FEFFDD"/><path d="M360.913,147.099 L360.913,157.099 L370.913,157.099 L360.913,147.099" style="stroke:#181818;stroke-width:0.5;" fill="#FEFFDD"/><text x="181.766" y="164.292" fill="#000" font-size="13" textLength="174.148" font-family="Arial">Applications with training days</text><text x="181.766" y="179.241" fill="#000" font-size="13" textLength="169.787" font-family="Arial">in a DRAFT year are refused.</text></g><g class="link" data-entity-1="ent0001" data-entity-2="ent0002" id="lnk3" data-link-type="dependency"><polygon points="124.266,141.723,128.266,132.723,124.266,136.723,120.266,132.723,124.266,141.723" fill="#181818" style="stroke:#181818;stroke-width:1;stroke-linejoin:miter;stroke-miterlimit:10;"/><path d="M124.266,73.228 C124.266,89.473 124.266,115.092 124.266,136.723" style="stroke:#181818;stroke-width:1;" fill="none"/><text x="126.266" y="105.292" fill="#000" font-size="13" textLength="171.964" font-family="Arial">administrator creates the year</text><text x="137.821" y="120.241" fill="#000" font-size="13" textLength="148.853" font-family="Arial">or imports the bundled list</text></g><g class="link" data-entity-1="ent0002" data-entity-2="ent0004" id="lnk5" data-link-type="dependency"><polygon points="71.561,278.628,63.822,272.537,66.715,277.398,61.854,280.292,71.561,278.628" fill="#181818" style="stroke:#181818;stroke-width:1;stroke-linejoin:miter;stroke-miterlimit:10;"/><path d="M90.631,170.729 C64.47,174.747 29.772,184.837 12.266,210.099 C3.911,222.154 3.911,231.044 12.266,243.099 C25.75,262.557 44.589,271.784 66.715,277.398" style="stroke:#181818;stroke-width:1;" fill="none"/><text x="50.06" y="224.292" fill="#000" font-size="13" textLength="127.867" font-family="Arial">administrator confirms</text><text x="14.266" y="239.241" fill="#000" font-size="13" textLength="199.456" font-family="Arial">(at least one holiday and a source)</text></g><g class="link" data-entity-1="ent0004" data-entity-2="ent0002" id="lnk6" data-link-type="dependency"><polygon points="157.817,187.453,163.978,195.137,162.26,189.748,167.649,188.029,157.817,187.453" fill="#181818" style="stroke:#181818;stroke-width:1;stroke-linejoin:miter;stroke-miterlimit:10;"/><path d="M176.878,272.48 C191.84,266.198 206.45,256.876 215.266,243.099 C223.17,230.744 223.62,222.154 215.266,210.099 C202.288,191.372 187.938,201.678 167.266,192.099 C164.163,190.661 165.422,191.381 162.26,189.748" style="stroke:#181818;stroke-width:1;" fill="none"/><text x="226.846" y="224.292" fill="#000" font-size="13" textLength="179.956" font-family="Arial">a holiday date is added, moved</text><text x="223.266" y="239.241" fill="#000" font-size="13" textLength="187.116" font-family="Arial">or removed (after the impact list)</text></g><g class="link" data-entity-1="ent0004" data-entity-2="ent0004" id="lnk7" data-link-type="dependency"><polygon points="176.841,296.525,186.231,299.497,181.81,295.968,185.339,291.547,176.841,296.525" fill="#181818" style="stroke:#181818;stroke-width:1;stroke-linejoin:miter;stroke-miterlimit:10;"/><path d="M176.841,275.672 C187.304,276.846 194.766,280.321 194.766,286.099 C194.766,291.876 192.273,294.794 181.81,295.968" style="stroke:#181818;stroke-width:1;" fill="none"/><text x="196.766" y="291.292" fill="#000" font-size="13" textLength="119.958" font-family="Arial">a holiday is renamed</text></g><?plantuml-src PP6nJWCn38RtF8NP2g8y00DI1LHYe4XLDyfWBhvUHEASR1zLtnxVLHGAInGvzlT_YYzwmLr1o7YeWu4MCcGCbYmJR0GJ9zv1Wvauei21_5138mtwaRX7mGBQOQpxiR75hFJh9LABGxPbPLjX8LX8mXp2wzKRpETtyB1UB3Tm2nYB1wa9MXLeXCO0i8wcm2rxCPM-YXsBxmF7J16oZuGZOwJTlwoMJ-ldnuV_nCfjag9Rdg519bI3oWHTpIdY0P0Z86WTfA7ByCCvSpnrHxU3f9uHALv3gPyK9qUXwGupR8raKdLjR6mo_Gi-qpt1dIl4_bSnSFKSIRlEPTkZHm1Oz7rE3LgghB1Fre5zhyddrJiIE--eFUqBnJ7K3ahn9lWUOGH_0G00?></g></svg>