<svg xmlns="http://www.w3.org/2000/svg" xmlns:xlink="http://www.w3.org/1999/xlink" version="1.1" data-diagram-type="CLASS" style="width:1241px;height:790px;background:#FFFFFF;" width="1241px" height="790px" viewBox="0 0 1241 790" zoomAndPan="magnify" preserveAspectRatio="none" contentStyleType="text/css"><?plantuml 1.2026.8?><defs/><g font-family="sans-serif" lengthAdjust="spacing"><g class="title" data-source-line="2"><text x="515.34" y="23.132" fill="#000" font-size="14" textLength="203.82" font-weight="700" font-family="Arial">Uptrail - data model (16 tables)</text></g><!--class users--><g class="entity" data-qualified-name="users" id="ent0001" data-source-line="7"><rect x="97.5" y="49.099" width="302.315" height="122.592" fill="#F1F1F1" style="stroke:#181818;stroke-width:0.5;" rx="2.5" ry="2.5"/><text x="231.541" y="67.23" fill="#000" font-size="14" textLength="34.234" font-family="Arial">users</text><line x1="98.5" y1="75.197" x2="398.815" y2="75.197" style="stroke:#181818;stroke-width:0.5;"/><g data-visibility-modifier="IE_MANDATORY"><ellipse cx="108.5" cy="88.747" rx="3" ry="3" fill="#000" style="stroke:#000;stroke-width:1;"/></g><text x="117.5" y="92.329" fill="#000" font-size="14" textLength="96.482" font-family="Arial">id (Java userId)</text><line x1="98.5" y1="99.296" x2="398.815" y2="99.296" style="stroke:#181818;stroke-width:1;"/><text x="103.5" y="116.428" fill="#000" font-size="14" textLength="221.765" font-family="Arial">user_type (Staff / Manager / Admin)</text><text x="103.5" y="132.526" fill="#000" font-size="14" textLength="184.427" font-family="Arial">staff_id (unique), name, email</text><text x="103.5" y="148.625" fill="#000" font-size="14" textLength="231.137" font-family="Arial">user_name (unique), password_hash</text><text x="103.5" y="164.724" fill="#000" font-size="14" textLength="290.315" font-family="Arial">department, designation_code, active, enabled</text></g><!--class user_roles--><g class="entity" data-qualified-name="user_roles" id="ent0002" data-source-line="15"><rect x="6" y="266.599" width="141.186" height="58.197" fill="#F1F1F1" style="stroke:#181818;stroke-width:0.5;" rx="2.5" ry="2.5"/><text x="43.91" y="284.73" fill="#000" font-size="14" textLength="65.365" font-family="Arial">user_roles</text><line x1="7" y1="292.697" x2="146.186" y2="292.697" style="stroke:#181818;stroke-width:0.5;"/><g data-visibility-modifier="IE_MANDATORY"><ellipse cx="17" cy="306.247" rx="3" ry="3" fill="#000" style="stroke:#000;stroke-width:1;"/></g><text x="26" y="309.829" fill="#000" font-size="14" textLength="115.186" font-family="Arial">user_id, role_code</text><line x1="7" y1="316.796" x2="146.186" y2="316.796" style="stroke:#181818;stroke-width:0.5;"/></g><!--class approval_hierarchy--><g class="entity" data-qualified-name="approval_hierarchy" id="ent0003" data-source-line="18"><rect x="165" y="258.599" width="125.068" height="74.296" fill="#F1F1F1" style="stroke:#181818;stroke-width:0.5;" rx="2.5" ry="2.5"/><text x="168" y="276.73" fill="#000" font-size="14" textLength="119.068" font-family="Arial">approval_hierarchy</text><line x1="166" y1="284.697" x2="289.068" y2="284.697" style="stroke:#181818;stroke-width:0.5;"/><g data-visibility-modifier="IE_MANDATORY"><ellipse cx="176" cy="298.247" rx="3" ry="3" fill="#000" style="stroke:#000;stroke-width:1;"/></g><text x="185" y="301.829" fill="#000" font-size="14" textLength="79.386" font-family="Arial">employee_id</text><line x1="166" y1="308.796" x2="289.068" y2="308.796" style="stroke:#181818;stroke-width:1;"/><text x="171" y="325.928" fill="#000" font-size="14" textLength="73.938" font-family="Arial">manager_id</text></g><!--class course_category--><g class="entity" data-qualified-name="course_category" id="ent0004" data-source-line="23"><rect x="545.5" y="73.599" width="173.868" height="74.296" fill="#F1F1F1" style="stroke:#181818;stroke-width:0.5;" rx="2.5" ry="2.5"/><text x="580.683" y="91.73" fill="#000" font-size="14" textLength="103.503" font-family="Arial">course_category</text><line x1="546.5" y1="99.697" x2="718.368" y2="99.697" style="stroke:#181818;stroke-width:0.5;"/><g data-visibility-modifier="IE_MANDATORY"><ellipse cx="556.5" cy="113.247" rx="3" ry="3" fill="#000" style="stroke:#000;stroke-width:1;"/></g><text x="565.5" y="116.829" fill="#000" font-size="14" textLength="30.358" font-family="Arial">code</text><line x1="546.5" y1="123.796" x2="718.368" y2="123.796" style="stroke:#181818;stroke-width:1;"/><text x="551.5" y="140.928" fill="#000" font-size="14" textLength="161.868" font-family="Arial">display_name, description</text></g><!--class training_provider--><g class="entity" data-qualified-name="training_provider" id="ent0005" data-source-line="28"><rect x="737.5" y="73.599" width="110.282" height="74.296" fill="#F1F1F1" style="stroke:#181818;stroke-width:0.5;" rx="2.5" ry="2.5"/><text x="740.5" y="91.73" fill="#000" font-size="14" textLength="104.282" font-family="Arial">training_provider</text><line x1="738.5" y1="99.697" x2="846.782" y2="99.697" style="stroke:#181818;stroke-width:0.5;"/><g data-visibility-modifier="IE_MANDATORY"><ellipse cx="748.5" cy="113.247" rx="3" ry="3" fill="#000" style="stroke:#000;stroke-width:1;"/></g><text x="757.5" y="116.829" fill="#000" font-size="14" textLength="10.896" font-family="Arial">id</text><line x1="738.5" y1="123.796" x2="846.782" y2="123.796" style="stroke:#181818;stroke-width:1;"/><text x="743.5" y="140.928" fill="#000" font-size="14" textLength="79.372" font-family="Arial">name, active</text></g><!--class course_catalogue--><g class="entity" data-qualified-name="course_catalogue" id="ent0006" data-source-line="33"><rect x="692" y="250.599" width="180.882" height="90.395" fill="#F1F1F1" style="stroke:#181818;stroke-width:0.5;" rx="2.5" ry="2.5"/><text x="727.179" y="268.73" fill="#000" font-size="14" textLength="110.523" font-family="Arial">course_catalogue</text><line x1="693" y1="276.697" x2="871.882" y2="276.697" style="stroke:#181818;stroke-width:0.5;"/><g data-visibility-modifier="IE_MANDATORY"><ellipse cx="703" cy="290.247" rx="3" ry="3" fill="#000" style="stroke:#000;stroke-width:1;"/></g><text x="712" y="293.829" fill="#000" font-size="14" textLength="10.896" font-family="Arial">id</text><line x1="693" y1="300.796" x2="871.882" y2="300.796" style="stroke:#181818;stroke-width:1;"/><text x="698" y="317.928" fill="#000" font-size="14" textLength="168.882" font-family="Arial">category_code, provider_id</text><text x="698" y="334.026" fill="#000" font-size="14" textLength="143.199" font-family="Arial">title, default_fee, active</text></g><!--class training_calendar_year--><g class="entity" data-qualified-name="training_calendar_year" id="ent0007" data-source-line="39"><rect x="876.5" y="65.599" width="205.669" height="90.395" fill="#F1F1F1" style="stroke:#181818;stroke-width:0.5;" rx="2.5" ry="2.5"/><text x="908.121" y="83.73" fill="#000" font-size="14" textLength="142.427" font-family="Arial">training_calendar_year</text><line x1="877.5" y1="91.697" x2="1081.169" y2="91.697" style="stroke:#181818;stroke-width:0.5;"/><g data-visibility-modifier="IE_MANDATORY"><ellipse cx="887.5" cy="105.247" rx="3" ry="3" fill="#000" style="stroke:#000;stroke-width:1;"/></g><text x="896.5" y="108.829" fill="#000" font-size="14" textLength="88.724" font-family="Arial">calendar_year</text><line x1="877.5" y1="115.796" x2="1081.169" y2="115.796" style="stroke:#181818;stroke-width:1;"/><text x="882.5" y="132.928" fill="#000" font-size="14" textLength="193.669" font-family="Arial">status (DRAFT / CONFIRMED)</text><text x="882.5" y="149.026" fill="#000" font-size="14" textLength="168.875" font-family="Arial">source_note, confirmed_by</text></g><!--class excluded_days--><g class="entity" data-qualified-name="excluded_days" id="ent0008" data-source-line="45"><rect x="891" y="250.599" width="176.992" height="90.395" fill="#F1F1F1" style="stroke:#181818;stroke-width:0.5;" rx="2.5" ry="2.5"/><text x="932.796" y="268.73" fill="#000" font-size="14" textLength="93.399" font-family="Arial">excluded_days</text><line x1="892" y1="276.697" x2="1066.992" y2="276.697" style="stroke:#181818;stroke-width:0.5;"/><g data-visibility-modifier="IE_MANDATORY"><ellipse cx="902" cy="290.247" rx="3" ry="3" fill="#000" style="stroke:#000;stroke-width:1;"/></g><text x="911" y="293.829" fill="#000" font-size="14" textLength="79.399" font-family="Arial">holiday_date</text><line x1="892" y1="300.796" x2="1066.992" y2="300.796" style="stroke:#181818;stroke-width:1;"/><text x="897" y="317.928" fill="#000" font-size="14" textLength="119.854" font-family="Arial">name, source_note</text><text x="897" y="334.026" fill="#000" font-size="14" textLength="164.992" font-family="Arial">calendar_year (generated)</text></g><!--class training_entitlement--><g class="entity" data-qualified-name="training_entitlement" id="ent0009" data-source-line="51"><rect x="171" y="383.099" width="251.319" height="90.395" fill="#F1F1F1" style="stroke:#181818;stroke-width:0.5;" rx="2.5" ry="2.5"/><text x="235.567" y="401.23" fill="#000" font-size="14" textLength="122.186" font-family="Arial">training_entitlement</text><line x1="172" y1="409.197" x2="421.319" y2="409.197" style="stroke:#181818;stroke-width:0.5;"/><g data-visibility-modifier="IE_MANDATORY"><ellipse cx="182" cy="422.747" rx="3" ry="3" fill="#000" style="stroke:#000;stroke-width:1;"/></g><text x="191" y="426.329" fill="#000" font-size="14" textLength="10.896" font-family="Arial">id</text><line x1="172" y1="433.296" x2="421.319" y2="433.296" style="stroke:#181818;stroke-width:1;"/><text x="177" y="450.428" fill="#000" font-size="14" textLength="239.319" font-family="Arial">employee_id + calendar_year (unique)</text><text x="177" y="466.526" fill="#000" font-size="14" textLength="187.585" font-family="Arial">entitled_units, budget_amount</text></g><!--class course_application--><g class="entity" data-qualified-name="course_application" id="ent0010" data-source-line="57"><rect x="389.5" y="226.099" width="284.378" height="138.69" fill="#F1F1F1" style="stroke:#181818;stroke-width:0.5;" rx="2.5" ry="2.5"/><text x="473.317" y="244.23" fill="#000" font-size="14" textLength="116.744" font-family="Arial">course_application</text><line x1="390.5" y1="252.197" x2="672.878" y2="252.197" style="stroke:#181818;stroke-width:0.5;"/><g data-visibility-modifier="IE_MANDATORY"><ellipse cx="400.5" cy="265.747" rx="3" ry="3" fill="#000" style="stroke:#000;stroke-width:1;"/></g><text x="409.5" y="269.329" fill="#000" font-size="14" textLength="10.896" font-family="Arial">id</text><line x1="390.5" y1="276.296" x2="672.878" y2="276.296" style="stroke:#181818;stroke-width:1;"/><text x="395.5" y="293.428" fill="#000" font-size="14" textLength="137.758" font-family="Arial">reference_no (unique)</text><text x="395.5" y="309.526" fill="#000" font-size="14" textLength="242.819" font-family="Arial">applicant_id, approver_id, reviewed_by</text><text x="395.5" y="325.625" fill="#000" font-size="14" textLength="272.378" font-family="Arial">category_code, course_title, provider_name</text><text x="395.5" y="341.724" fill="#000" font-size="14" textLength="241.268" font-family="Arial">start/end date and session, course_fee</text><text x="395.5" y="357.822" fill="#000" font-size="14" textLength="90.262" font-family="Arial">status, version</text></g><!--class application_day--><g class="entity" data-qualified-name="application_day" id="ent0011" data-source-line="66"><rect x="324.5" y="515.599" width="200.351" height="74.296" fill="#F1F1F1" style="stroke:#181818;stroke-width:0.5;" rx="2.5" ry="2.5"/><text x="376.027" y="533.73" fill="#000" font-size="14" textLength="97.296" font-family="Arial">application_day</text><line x1="325.5" y1="541.697" x2="523.851" y2="541.697" style="stroke:#181818;stroke-width:0.5;"/><g data-visibility-modifier="IE_MANDATORY"><ellipse cx="335.5" cy="555.247" rx="3" ry="3" fill="#000" style="stroke:#000;stroke-width:1;"/></g><text x="344.5" y="558.829" fill="#000" font-size="14" textLength="174.351" font-family="Arial">application_id, training_date</text><line x1="325.5" y1="565.796" x2="523.851" y2="565.796" style="stroke:#181818;stroke-width:1;"/><text x="330.5" y="582.928" fill="#000" font-size="14" textLength="171.979" font-family="Arial">units (1 or 2), session_code</text></g><!--class course_fee_application--><g class="entity" data-qualified-name="course_fee_application" id="ent0012" data-source-line="71"><rect x="581" y="491.099" width="272.695" height="122.592" fill="#F1F1F1" style="stroke:#181818;stroke-width:0.5;" rx="2.5" ry="2.5"/><text x="645.352" y="509.23" fill="#000" font-size="14" textLength="143.992" font-family="Arial">course_fee_application</text><line x1="582" y1="517.197" x2="852.695" y2="517.197" style="stroke:#181818;stroke-width:0.5;"/><g data-visibility-modifier="IE_MANDATORY"><ellipse cx="592" cy="530.747" rx="3" ry="3" fill="#000" style="stroke:#000;stroke-width:1;"/></g><text x="601" y="534.329" fill="#000" font-size="14" textLength="10.896" font-family="Arial">id</text><line x1="582" y1="541.296" x2="852.695" y2="541.296" style="stroke:#181818;stroke-width:1;"/><text x="587" y="558.428" fill="#000" font-size="14" textLength="140.875" font-family="Arial">application_id (unique)</text><text x="587" y="574.526" fill="#000" font-size="14" textLength="147.848" font-family="Arial">revision, amount, status</text><text x="587" y="590.625" fill="#000" font-size="14" textLength="260.695" font-family="Arial">approver_id, reviewed_by, reimbursed_by</text><text x="587" y="606.724" fill="#000" font-size="14" textLength="215.551" font-family="Arial">reimbursement_reference (unique)</text></g><!--class claim_document--><g class="entity" data-qualified-name="claim_document" id="ent0013" data-source-line="79"><rect x="608" y="667.599" width="334.943" height="90.395" fill="#F1F1F1" style="stroke:#181818;stroke-width:0.5;" rx="2.5" ry="2.5"/><text x="724.503" y="685.73" fill="#000" font-size="14" textLength="101.938" font-family="Arial">claim_document</text><line x1="609" y1="693.697" x2="941.943" y2="693.697" style="stroke:#181818;stroke-width:0.5;"/><g data-visibility-modifier="IE_MANDATORY"><ellipse cx="619" cy="707.247" rx="3" ry="3" fill="#000" style="stroke:#000;stroke-width:1;"/></g><text x="628" y="710.829" fill="#000" font-size="14" textLength="10.896" font-family="Arial">id</text><line x1="609" y1="717.796" x2="941.943" y2="717.796" style="stroke:#181818;stroke-width:1;"/><text x="614" y="734.928" fill="#000" font-size="14" textLength="322.943" font-family="Arial">claim_id + claim_revision + document_type (unique)</text><text x="614" y="751.026" fill="#000" font-size="14" textLength="259.157" font-family="Arial">storage_key (unique), sha256, size_bytes</text></g><!--class audit_event--><g class="entity" data-qualified-name="audit_event" id="ent0014" data-source-line="85"><rect x="939.5" y="499.599" width="285.984" height="106.493" fill="#F1F1F1" style="stroke:#181818;stroke-width:0.5;" rx="2.5" ry="2.5"/><text x="1046.296" y="517.73" fill="#000" font-size="14" textLength="72.393" font-family="Arial">audit_event</text><line x1="940.5" y1="525.697" x2="1224.484" y2="525.697" style="stroke:#181818;stroke-width:0.5;"/><g data-visibility-modifier="IE_MANDATORY"><ellipse cx="950.5" cy="539.247" rx="3" ry="3" fill="#000" style="stroke:#000;stroke-width:1;"/></g><text x="959.5" y="542.829" fill="#000" font-size="14" textLength="10.896" font-family="Arial">id</text><line x1="940.5" y1="549.796" x2="1224.484" y2="549.796" style="stroke:#181818;stroke-width:1;"/><text x="945.5" y="566.928" fill="#000" font-size="14" textLength="273.984" font-family="Arial">aggregate_type, aggregate_key, event_type</text><text x="945.5" y="583.026" fill="#000" font-size="14" textLength="249.806" font-family="Arial">actor_employee_id, from_state, to_state</text><text x="945.5" y="599.125" fill="#000" font-size="14" textLength="232.702" font-family="Arial">reason, snapshot_json, correlation_id</text></g><!--class training_ledger--><g class="entity" data-qualified-name="training_ledger" id="ent0015" data-source-line="92"><rect x="337" y="651.099" width="253.227" height="122.592" fill="#F1F1F1" style="stroke:#181818;stroke-width:0.5;" rx="2.5" ry="2.5"/><text x="417.303" y="669.23" fill="#000" font-size="14" textLength="92.62" font-family="Arial">training_ledger</text><line x1="338" y1="677.197" x2="589.227" y2="677.197" style="stroke:#181818;stroke-width:0.5;"/><g data-visibility-modifier="IE_MANDATORY"><ellipse cx="348" cy="690.747" rx="3" ry="3" fill="#000" style="stroke:#000;stroke-width:1;"/></g><text x="357" y="694.329" fill="#000" font-size="14" textLength="10.896" font-family="Arial">id</text><line x1="338" y1="701.296" x2="589.227" y2="701.296" style="stroke:#181818;stroke-width:1;"/><text x="343" y="718.428" fill="#000" font-size="14" textLength="191.857" font-family="Arial">event_id + account_id (unique)</text><text x="343" y="734.526" fill="#000" font-size="14" textLength="217.902" font-family="Arial">application_id, claim_id, entry_type</text><text x="343" y="750.625" fill="#000" font-size="14" textLength="241.227" font-family="Arial">reserved/committed units and amounts</text><text x="343" y="766.724" fill="#000" font-size="14" textLength="124.51" font-family="Arial">reimbursed_amount</text></g><!--class email_outbox--><g class="entity" data-qualified-name="email_outbox" id="ent0016" data-source-line="100"><rect x="961" y="659.599" width="258.709" height="106.493" fill="#F1F1F1" style="stroke:#181818;stroke-width:0.5;" rx="2.5" ry="2.5"/><text x="1048.717" y="677.73" fill="#000" font-size="14" textLength="83.275" font-family="Arial">email_outbox</text><line x1="962" y1="685.697" x2="1218.709" y2="685.697" style="stroke:#181818;stroke-width:0.5;"/><g data-visibility-modifier="IE_MANDATORY"><ellipse cx="972" cy="699.247" rx="3" ry="3" fill="#000" style="stroke:#000;stroke-width:1;"/></g><text x="981" y="702.829" fill="#000" font-size="14" textLength="10.896" font-family="Arial">id</text><line x1="962" y1="709.796" x2="1218.709" y2="709.796" style="stroke:#181818;stroke-width:1;"/><text x="967" y="726.928" fill="#000" font-size="14" textLength="246.709" font-family="Arial">event_id + recipient + template (unique)</text><text x="967" y="743.026" fill="#000" font-size="14" textLength="206.999" font-family="Arial">status, attempts, next_attempt_at</text><text x="967" y="759.125" fill="#000" font-size="14" textLength="187.551" font-family="Arial">lease_until, sent_at, last_error</text></g><g class="link" data-entity-1="ent0001" data-entity-2="ent0002" id="lnk17" data-link-type="crowfoot"><line x1="185.811" y1="172.456" x2="191.641" y2="177.935" style="stroke:#181818;stroke-width:1;"/><line x1="183.757" y1="174.642" x2="189.586" y2="180.121" style="stroke:#181818;stroke-width:1;"/><line x1="185.986" y1="178.11" x2="191.465" y2="172.281" style="stroke:#181818;stroke-width:1;"/><line x1="108.303" y1="260.762" x2="107.196" y2="270.7" style="stroke:#181818;stroke-width:1;"/><line x1="108.303" y1="260.762" x2="98.452" y2="262.482" style="stroke:#181818;stroke-width:1;"/><line x1="108.303" y1="260.762" x2="102.824" y2="266.591" style="stroke:#181818;stroke-width:1;"/><ellipse cx="112.412" cy="256.39" rx="4" ry="4" fill="none" style="stroke:#181818;stroke-width:1;"/><path d="M185.986,178.11 C156.063,209.947 138.649,228.475 115.152,253.475" style="stroke:#181818;stroke-width:1;" fill="none"/></g><g class="link" data-entity-1="ent0001" data-entity-2="ent0003" id="lnk18" data-link-type="association"><line x1="227.753" y1="175.367" x2="235.605" y2="176.901" style="stroke:#181818;stroke-width:1;"/><line x1="227.178" y1="178.311" x2="235.029" y2="179.846" style="stroke:#181818;stroke-width:1;"/><line x1="230.912" y1="180.06" x2="232.446" y2="172.209" style="stroke:#181818;stroke-width:1;"/><line x1="226.145" y1="247.184" x2="226.255" y2="258.184" style="stroke:#181818;stroke-width:1;"/><ellipse cx="226.145" cy="247.184" rx="4" ry="4" fill="none" style="stroke:#181818;stroke-width:1;"/><line x1="230.215" y1="254.144" x2="222.215" y2="254.224" style="stroke:#181818;stroke-width:1;"/><path d="M230.912,180.06 C229.737,186.072 230.254,184.258 229.5,190.099 C226.598,212.594 225.902,223.037 226.105,243.185" style="stroke:#181818;stroke-width:1;" fill="none"/></g><g class="link" data-entity-1="ent0003" data-entity-2="ent0001" id="lnk19" data-link-type="crowfoot"><line x1="232.571" y1="250.411" x2="237.62" y2="259.043" style="stroke:#181818;stroke-width:1;"/><line x1="232.571" y1="250.411" x2="225.698" y2="257.675" style="stroke:#181818;stroke-width:1;"/><line x1="232.571" y1="250.411" x2="231.659" y2="258.359" style="stroke:#181818;stroke-width:1;"/><ellipse cx="233.255" cy="244.45" rx="4" ry="4" fill="none" style="stroke:#181818;stroke-width:1;"/><line x1="237.107" y1="175.799" x2="245.054" y2="176.711" style="stroke:#181818;stroke-width:1;"/><line x1="236.765" y1="178.779" x2="244.712" y2="179.691" style="stroke:#181818;stroke-width:1;"/><line x1="240.624" y1="180.229" x2="241.536" y2="172.281" style="stroke:#181818;stroke-width:1;"/><path d="M233.711,240.477 C236.527,215.932 237.353,208.736 240.624,180.229" style="stroke:#181818;stroke-width:1;" fill="none"/><text x="241.5" y="204.292" fill="#000" font-size="13" textLength="51.308" font-family="Arial">manager</text></g><g class="link" data-entity-1="ent0004" data-entity-2="ent0006" id="lnk20" data-link-type="crowfoot"><line x1="661.577" y1="153.383" x2="667.764" y2="148.311" style="stroke:#181818;stroke-width:1;"/><line x1="663.479" y1="155.703" x2="669.666" y2="150.632" style="stroke:#181818;stroke-width:1;"/><line x1="667.207" y1="153.941" x2="662.135" y2="147.754" style="stroke:#181818;stroke-width:1;"/><line x1="741.233" y1="244.253" x2="750.945" y2="246.636" style="stroke:#181818;stroke-width:1;"/><line x1="741.233" y1="244.253" x2="741.664" y2="254.243" style="stroke:#181818;stroke-width:1;"/><line x1="741.233" y1="244.253" x2="746.304" y2="250.44" style="stroke:#181818;stroke-width:1;"/><ellipse cx="737.429" cy="239.612" rx="4" ry="4" fill="none" style="stroke:#181818;stroke-width:1;"/><path d="M667.207,153.941 C691.369,183.419 709.112,205.065 734.894,236.519" style="stroke:#181818;stroke-width:1;" fill="none"/></g><g class="link" data-entity-1="ent0005" data-entity-2="ent0006" id="lnk21" data-link-type="crowfoot"><line x1="789.924" y1="158.737" x2="790.524" y2="147.754" style="stroke:#181818;stroke-width:1;"/><ellipse cx="789.924" cy="158.737" rx="4" ry="4" fill="none" style="stroke:#181818;stroke-width:1;"/><line x1="786.312" y1="151.529" x2="794.3" y2="151.966" style="stroke:#181818;stroke-width:1;"/><line x1="785.35" y1="242.452" x2="790.904" y2="250.767" style="stroke:#181818;stroke-width:1;"/><line x1="785.35" y1="242.452" x2="778.922" y2="250.112" style="stroke:#181818;stroke-width:1;"/><line x1="785.35" y1="242.452" x2="784.913" y2="250.44" style="stroke:#181818;stroke-width:1;"/><ellipse cx="785.677" cy="236.461" rx="4" ry="4" fill="none" style="stroke:#181818;stroke-width:1;"/><path d="M789.706,162.731 C788.095,192.21 787.614,201.013 785.895,232.467" style="stroke:#181818;stroke-width:1;" fill="none"/></g><g class="link" data-entity-1="ent0007" data-entity-2="ent0008" id="lnk22" data-link-type="crowfoot"><line x1="975.5" y1="159.898" x2="983.5" y2="159.898" style="stroke:#181818;stroke-width:1;"/><line x1="975.5" y1="162.898" x2="983.5" y2="162.898" style="stroke:#181818;stroke-width:1;"/><line x1="979.5" y1="163.898" x2="979.5" y2="155.898" style="stroke:#181818;stroke-width:1;"/><line x1="979.5" y1="242.391" x2="985.5" y2="250.391" style="stroke:#181818;stroke-width:1;"/><line x1="979.5" y1="242.391" x2="973.5" y2="250.391" style="stroke:#181818;stroke-width:1;"/><line x1="979.5" y1="242.391" x2="979.5" y2="250.391" style="stroke:#181818;stroke-width:1;"/><ellipse cx="979.5" cy="236.391" rx="4" ry="4" fill="none" style="stroke:#181818;stroke-width:1;"/><path d="M979.5,163.898 C979.5,192.564 979.5,203.742 979.5,232.391" style="stroke:#181818;stroke-width:1;" fill="none"/></g><g class="link" data-entity-1="ent0001" data-entity-2="ent0009" id="lnk23" data-link-type="crowfoot"><line x1="289.667" y1="177.473" x2="296.898" y2="174.052" style="stroke:#181818;stroke-width:1;"/><line x1="290.95" y1="180.185" x2="298.181" y2="176.764" style="stroke:#181818;stroke-width:1;"/><line x1="294.993" y1="179.378" x2="291.572" y2="172.147" style="stroke:#181818;stroke-width:1;"/><line x1="305.466" y1="374.896" x2="310.282" y2="383.66" style="stroke:#181818;stroke-width:1;"/><line x1="305.466" y1="374.896" x2="298.401" y2="381.973" style="stroke:#181818;stroke-width:1;"/><line x1="305.466" y1="374.896" x2="304.342" y2="382.817" style="stroke:#181818;stroke-width:1;"/><ellipse cx="306.309" cy="368.955" rx="4" ry="4" fill="none" style="stroke:#181818;stroke-width:1;"/><path d="M294.993,179.378 C297.772,185.252 296.737,184.049 298.5,190.099 C317.438,255.083 313.741,316.59 306.871,364.995" style="stroke:#181818;stroke-width:1;" fill="none"/></g><g class="link" data-entity-1="ent0001" data-entity-2="ent0010" id="lnk24" data-link-type="crowfoot"><line x1="343.529" y1="177.812" x2="347.873" y2="171.094" style="stroke:#181818;stroke-width:1;"/><line x1="346.048" y1="179.441" x2="350.392" y2="172.723" style="stroke:#181818;stroke-width:1;"/><line x1="349.06" y1="176.625" x2="342.342" y2="172.281" style="stroke:#181818;stroke-width:1;"/><line x1="418.479" y1="221.515" x2="428.455" y2="220.82" style="stroke:#181818;stroke-width:1;"/><line x1="418.479" y1="221.515" x2="421.939" y2="230.897" style="stroke:#181818;stroke-width:1;"/><line x1="418.479" y1="221.515" x2="425.197" y2="225.859" style="stroke:#181818;stroke-width:1;"/><ellipse cx="413.441" cy="218.257" rx="4" ry="4" fill="none" style="stroke:#181818;stroke-width:1;"/><path d="M349.06,176.625 C375.607,193.792 382.856,198.479 410.082,216.085" style="stroke:#181818;stroke-width:1;" fill="none"/></g><g class="link" data-entity-1="ent0010" data-entity-2="ent0011" id="lnk25" data-link-type="crowfoot"><line x1="497.449" y1="367.41" x2="504.826" y2="370.506" style="stroke:#181818;stroke-width:1;"/><line x1="496.288" y1="370.176" x2="503.665" y2="373.272" style="stroke:#181818;stroke-width:1;"/><line x1="499.59" y1="372.646" x2="502.685" y2="365.269" style="stroke:#181818;stroke-width:1;"/><line x1="442.764" y1="508.071" x2="445.202" y2="517.77" style="stroke:#181818;stroke-width:1;"/><line x1="442.764" y1="508.071" x2="434.136" y2="513.127" style="stroke:#181818;stroke-width:1;"/><line x1="442.764" y1="508.071" x2="439.669" y2="515.448" style="stroke:#181818;stroke-width:1;"/><line x1="447.227" y1="507.775" x2="439.85" y2="504.679" style="stroke:#181818;stroke-width:1;"/><path d="M499.59,372.646 C479.287,421.031 459.101,469.139 442.764,508.071" style="stroke:#181818;stroke-width:1;" fill="none"/></g><g class="link" data-entity-1="ent0010" data-entity-2="ent0012" id="lnk26" data-link-type="association"><line x1="580.715" y1="370.858" x2="587.178" y2="366.144" style="stroke:#181818;stroke-width:1;"/><line x1="582.483" y1="373.282" x2="588.946" y2="368.568" style="stroke:#181818;stroke-width:1;"/><line x1="586.304" y1="371.733" x2="581.589" y2="365.269" style="stroke:#181818;stroke-width:1;"/><line x1="666.864" y1="482.178" x2="673.346" y2="491.065" style="stroke:#181818;stroke-width:1;"/><ellipse cx="666.864" cy="482.178" rx="4" ry="4" fill="none" style="stroke:#181818;stroke-width:1;"/><line x1="674.22" y1="485.476" x2="667.757" y2="490.19" style="stroke:#181818;stroke-width:1;"/><path d="M586.304,371.733 C614.925,410.971 636.937,441.149 664.506,478.946" style="stroke:#181818;stroke-width:1;" fill="none"/></g><g class="link" data-entity-1="ent0012" data-entity-2="ent0013" id="lnk27" data-link-type="crowfoot"><line x1="737.382" y1="619.367" x2="744.892" y2="616.61" style="stroke:#181818;stroke-width:1;"/><line x1="738.416" y1="622.183" x2="745.926" y2="619.427" style="stroke:#181818;stroke-width:1;"/><line x1="742.515" y1="621.744" x2="739.758" y2="614.234" style="stroke:#181818;stroke-width:1;"/><line x1="756.577" y1="660.051" x2="764.967" y2="665.493" style="stroke:#181818;stroke-width:1;"/><line x1="756.577" y1="660.051" x2="753.702" y2="669.628" style="stroke:#181818;stroke-width:1;"/><line x1="756.577" y1="660.051" x2="759.334" y2="667.561" style="stroke:#181818;stroke-width:1;"/><ellipse cx="754.51" cy="654.418" rx="4" ry="4" fill="none" style="stroke:#181818;stroke-width:1;"/><path d="M742.515,621.744 C749.032,639.497 747.07,634.152 753.131,650.663" style="stroke:#181818;stroke-width:1;" fill="none"/></g><g class="link" data-entity-1="ent0009" data-entity-2="ent0015" id="lnk28" data-link-type="crowfoot"><line x1="286.616" y1="476.876" x2="294.596" y2="477.444" style="stroke:#181818;stroke-width:1;"/><line x1="286.403" y1="479.869" x2="294.383" y2="480.437" style="stroke:#181818;stroke-width:1;"/><line x1="290.322" y1="481.15" x2="290.89" y2="473.17" style="stroke:#181818;stroke-width:1;"/><line x1="341.445" y1="645.675" x2="351.422" y2="646.356" style="stroke:#181818;stroke-width:1;"/><line x1="341.445" y1="645.675" x2="343.585" y2="655.444" style="stroke:#181818;stroke-width:1;"/><line x1="341.445" y1="645.675" x2="347.504" y2="650.9" style="stroke:#181818;stroke-width:1;"/><ellipse cx="336.901" cy="641.757" rx="4" ry="4" fill="none" style="stroke:#181818;stroke-width:1;"/><path d="M290.322,481.15 C287.495,520.877 289.626,571.45 315.5,614.099 C323.879,627.91 321.414,628.401 333.872,639.145" style="stroke:#181818;stroke-width:1;" fill="none"/></g><g class="link" data-entity-1="ent0014" data-entity-2="ent0015" id="lnk29" data-link-type="crowfoot"><line x1="934.478" y1="592.979" x2="936.511" y2="600.716" style="stroke:#181818;stroke-width:1;"/><line x1="931.577" y1="593.741" x2="933.609" y2="601.479" style="stroke:#181818;stroke-width:1;"/><line x1="931.626" y1="597.864" x2="939.363" y2="595.831" style="stroke:#181818;stroke-width:1;"/><line x1="597.942" y1="651.163" x2="592.12" y2="659.293" style="stroke:#181818;stroke-width:1;"/><line x1="597.942" y1="651.163" x2="588.507" y2="647.85" style="stroke:#181818;stroke-width:1;"/><line x1="597.942" y1="651.163" x2="590.314" y2="653.572" style="stroke:#181818;stroke-width:1;"/><ellipse cx="603.664" cy="649.356" rx="4" ry="4" fill="none" style="stroke:#181818;stroke-width:1;"/><path d="M931.626,597.864 C906.162,604.554 887.521,608.927 862.5,614.099 C746.472,638.079 712.357,618.324 598.5,651.099 C595.785,651.88 610.219,647.286 607.478,648.152" style="stroke:#181818;stroke-width:1;" fill="none"/></g><g class="link" data-entity-1="ent0014" data-entity-2="ent0016" id="lnk30" data-link-type="crowfoot"><line x1="1081.349" y1="609.969" x2="1089.339" y2="609.564" style="stroke:#181818;stroke-width:1;"/><line x1="1081.501" y1="612.965" x2="1089.491" y2="612.56" style="stroke:#181818;stroke-width:1;"/><line x1="1085.546" y1="613.761" x2="1085.142" y2="605.772" style="stroke:#181818;stroke-width:1;"/><line x1="1087.457" y1="651.491" x2="1093.853" y2="659.177" style="stroke:#181818;stroke-width:1;"/><line x1="1087.457" y1="651.491" x2="1081.869" y2="659.784" style="stroke:#181818;stroke-width:1;"/><line x1="1087.457" y1="651.491" x2="1087.861" y2="659.48" style="stroke:#181818;stroke-width:1;"/><ellipse cx="1087.153" cy="645.498" rx="4" ry="4" fill="none" style="stroke:#181818;stroke-width:1;"/><path d="M1085.546,613.761 C1086.42,631.02 1086.077,624.249 1086.951,641.503" style="stroke:#181818;stroke-width:1;" fill="none"/></g><g class="link" data-entity-1="ent0010" data-entity-2="ent0015" id="lnk31" data-link-type="crowfoot"><line x1="545.586" y1="376.254" x2="544.06" y2="365.361" style="stroke:#181818;stroke-width:1;"/><ellipse cx="545.586" cy="376.254" rx="4" ry="4" fill="none" style="stroke:#181818;stroke-width:1;"/><line x1="540.654" y1="369.877" x2="548.576" y2="368.767" style="stroke:#181818;stroke-width:1;"/><line x1="519.8" y1="644.282" x2="520.555" y2="654.253" style="stroke:#181818;stroke-width:1;"/><line x1="519.8" y1="644.282" x2="510.439" y2="647.798" style="stroke:#181818;stroke-width:1;"/><line x1="519.8" y1="644.282" x2="515.497" y2="651.026" style="stroke:#181818;stroke-width:1;"/><ellipse cx="523.028" cy="639.224" rx="4" ry="4" fill="none" style="stroke:#181818;stroke-width:1;"/><path d="M546.141,380.215 C555.333,445.82 560.011,531.717 533.5,614.099 C529.383,626.893 532.579,624.256 525.179,635.852" style="stroke:#181818;stroke-width:1;" fill="none"/></g><g class="link" data-entity-1="ent0012" data-entity-2="ent0015" id="lnk32" data-link-type="crowfoot"><line x1="610.683" y1="620.044" x2="620.023" y2="614.234" style="stroke:#181818;stroke-width:1;"/><ellipse cx="610.683" cy="620.044" rx="4" ry="4" fill="none" style="stroke:#181818;stroke-width:1;"/><line x1="614.514" y1="612.95" x2="618.74" y2="619.743" style="stroke:#181818;stroke-width:1;"/><line x1="567.928" y1="646.639" x2="564.305" y2="655.96" style="stroke:#181818;stroke-width:1;"/><line x1="567.928" y1="646.639" x2="557.966" y2="645.77" style="stroke:#181818;stroke-width:1;"/><line x1="567.928" y1="646.639" x2="561.135" y2="650.865" style="stroke:#181818;stroke-width:1;"/><ellipse cx="573.023" cy="643.47" rx="4" ry="4" fill="none" style="stroke:#181818;stroke-width:1;"/><path d="M607.287,622.157 C587.98,634.166 595.731,629.345 576.42,641.357" style="stroke:#181818;stroke-width:1;" fill="none"/></g><?plantuml-src ZLPDZzis4BthLx0tRoDZqG3DeRT5qmLI82cGjcTYB8vbDXIfafHtrNN-UuSYALEMDkrbJOxc-ptEx7UzXRO3fc0qWsUkGmyQAY-zGlPdxor8nVPCW0VM6O6AxNvunpmS5BgxwYG5iaRQHc7blaZTWuMEkHC8yoHrouwWNFb5u146vH-Dzf-WG_PW9QYgGatnHZOuj8wzL8nzpwHWkr_X39FmWxWZuNvFVyAL-x57jllTm_78xjb7IhX5IwS7qKaTL5tun8EFGSk_1xohcQPuDSEEwibkWgZGwC6v9sC5Fu4xaOv0Ijftb5nDPoTR3LuQpHjgGysWyV8SFEhG2r5zBQlWrb1_KYcJG8gQ1U5aVLM6lhVc38gV95gmpMbCHjZroeo8P9XBxsATGJBRDsQmZfo2nzROR3p5I5P2kfx0vR5-ggEniWzrN9q4a3N1nKCkXAYTCSXEed4iUIiuADCEk3BBQQMMPVUnfebYTQO4F-96X3cp1XHg0PQF23czXIo79EJzuDZk_UU7np-84Z__zkdnm-UFlxoVQ449DyYryHIhCVeeROU27yPhH7nkr218A63C09wCadGbaSTbHmg7KxbbahiMDM7gaSYxBcYwAmpiMhMjm9wzkVMQw1hKeWl1IUHTpGw3QD5pwCoW_GebOfgIpSJWLK2BHxIefqhA2Cb6-uc-aQkPotYM-1IRjm8wXKm8px27daM8hB-dci9KGGPqSEWS9JPR4XbcB6j6CTs2i4Kj0QTKJoaDASwzBd6RUaKpZ1dBtjAZJv5ldkKrZM_sRHcnx5neJwmemb6dOgBHPXl3HNQ743XrTRu7bl0Pf6kSQxuAPCU5QOPDGiNFaKtJCQT7WcoKXkgr1ESDhGRaNt0iXYJDzhS_lgDV-GzIbXvT0SiWfETutae1sjPYIq1CSUhYJlvfYfvp2a6teT2yU0KrErhJyT12ClKcdgOEWGjDTXfwTpAU_-KYYwn5bN7PU7tqQjgDCHUpcFe4JHDmku7rbcAviM4DUA9_Ai0YZVmpYll6T9tqD08IxmBN8o5SYQzOFTffJt7Qo0Vp_AqqBJQobw7XRvWF7GilQW5YV4BWmzSm9JG-quo8L_eb7KLDH1eYNghm7dGGr_GFWICihJMMighYQhvSzdlpKcouKdxPM6RLndxxQlRxooKj-v_oLgjkDrcATRjZglMokfZ_q5nEqEHuCUYNzMqDwQN6UgPM6sCsA5zURgVLQvhKmEsnKxqoZN8kYxTVRMwOsy8Y_wlomVv_bPARcyMOJK-lLR6f_Iy0?></g></svg>