<svg xmlns="http://www.w3.org/2000/svg" xmlns:xlink="http://www.w3.org/1999/xlink" version="1.1" data-diagram-type="SEQUENCE" style="width:2135px;height:1012px;background:#FFFFFF;" width="2135px" height="1012px" viewBox="0 0 2135 1012" zoomAndPan="magnify" preserveAspectRatio="none" contentStyleType="text/css"><?plantuml 1.2026.8?><defs/><g font-family="sans-serif" lengthAdjust="spacing"><g class="title" data-source-line="1"><text x="960.597" y="28.132" fill="#000" font-size="14" textLength="212.358" font-weight="700" font-family="Arial">Submitting a course application</text></g><g><title>Staff</title><rect x="23.896" y="123.197" width="8" height="664.821" fill="#000" fill-opacity="0"/><line x1="27.396" y1="123.197" x2="27.396" y2="788.018" style="stroke:#181818;stroke-width:0.5;stroke-dasharray:5,5;"/></g><line x1="27.396" y1="788.018" x2="27.396" y2="828.667" style="stroke:#181818;stroke-width:0.5;stroke-dasharray:1,4;"/><g><title>Staff</title><rect x="23.896" y="828.667" width="8" height="96.846" fill="#000" fill-opacity="0"/><line x1="27.396" y1="828.667" x2="27.396" y2="925.513" style="stroke:#181818;stroke-width:0.5;stroke-dasharray:5,5;"/></g><g><title>Browser</title><rect x="154.125" y="123.197" width="8" height="664.821" fill="#000" fill-opacity="0"/><line x1="157.625" y1="123.197" x2="157.625" y2="788.018" style="stroke:#181818;stroke-width:0.5;stroke-dasharray:5,5;"/></g><line x1="157.625" y1="788.018" x2="157.625" y2="828.667" style="stroke:#181818;stroke-width:0.5;stroke-dasharray:1,4;"/><g><title>Browser</title><rect x="154.125" y="828.667" width="8" height="96.846" fill="#000" fill-opacity="0"/><line x1="157.625" y1="828.667" x2="157.625" y2="925.513" style="stroke:#181818;stroke-width:0.5;stroke-dasharray:5,5;"/></g><g><title>StaffController</title><rect x="462.068" y="123.197" width="8" height="664.821" fill="#000" fill-opacity="0"/><line x1="465.568" y1="123.197" x2="465.568" y2="788.018" style="stroke:#181818;stroke-width:0.5;stroke-dasharray:5,5;"/></g><line x1="465.568" y1="788.018" x2="465.568" y2="828.667" style="stroke:#181818;stroke-width:0.5;stroke-dasharray:1,4;"/><g><title>StaffController</title><rect x="462.068" y="828.667" width="8" height="96.846" fill="#000" fill-opacity="0"/><line x1="465.568" y1="828.667" x2="465.568" y2="925.513" style="stroke:#181818;stroke-width:0.5;stroke-dasharray:5,5;"/></g><g><title>CourseApplicationService</title><rect x="704.939" y="123.197" width="8" height="664.821" fill="#000" fill-opacity="0"/><line x1="708.439" y1="123.197" x2="708.439" y2="788.018" style="stroke:#181818;stroke-width:0.5;stroke-dasharray:5,5;"/></g><line x1="708.439" y1="788.018" x2="708.439" y2="828.667" style="stroke:#181818;stroke-width:0.5;stroke-dasharray:1,4;"/><g><title>CourseApplicationService</title><rect x="704.939" y="828.667" width="8" height="96.846" fill="#000" fill-opacity="0"/><line x1="708.439" y1="828.667" x2="708.439" y2="925.513" style="stroke:#181818;stroke-width:0.5;stroke-dasharray:5,5;"/></g><g><title></title><rect x="703.439" y="295.89" width="10" height="455.18" fill="#FFF" style="stroke:#181818;stroke-width:1;"/></g><g><title>ApplicationEvaluator</title><rect x="955.849" y="123.197" width="8" height="664.821" fill="#000" fill-opacity="0"/><line x1="959.349" y1="123.197" x2="959.349" y2="788.018" style="stroke:#181818;stroke-width:0.5;stroke-dasharray:5,5;"/></g><line x1="959.349" y1="788.018" x2="959.349" y2="828.667" style="stroke:#181818;stroke-width:0.5;stroke-dasharray:1,4;"/><g><title>ApplicationEvaluator</title><rect x="955.849" y="828.667" width="8" height="96.846" fill="#000" fill-opacity="0"/><line x1="959.349" y1="828.667" x2="959.349" y2="925.513" style="stroke:#181818;stroke-width:0.5;stroke-dasharray:5,5;"/></g><g><title>EntitlementService</title><rect x="1102.024" y="123.197" width="8" height="664.821" fill="#000" fill-opacity="0"/><line x1="1105.524" y1="123.197" x2="1105.524" y2="788.018" style="stroke:#181818;stroke-width:0.5;stroke-dasharray:5,5;"/></g><line x1="1105.524" y1="788.018" x2="1105.524" y2="828.667" style="stroke:#181818;stroke-width:0.5;stroke-dasharray:1,4;"/><g><title>EntitlementService</title><rect x="1102.024" y="828.667" width="8" height="96.846" fill="#000" fill-opacity="0"/><line x1="1105.524" y1="828.667" x2="1105.524" y2="925.513" style="stroke:#181818;stroke-width:0.5;stroke-dasharray:5,5;"/></g><g><title>AuditService</title><rect x="1223.679" y="123.197" width="8" height="664.821" fill="#000" fill-opacity="0"/><line x1="1227.179" y1="123.197" x2="1227.179" y2="788.018" style="stroke:#181818;stroke-width:0.5;stroke-dasharray:5,5;"/></g><line x1="1227.179" y1="788.018" x2="1227.179" y2="828.667" style="stroke:#181818;stroke-width:0.5;stroke-dasharray:1,4;"/><g><title>AuditService</title><rect x="1223.679" y="828.667" width="8" height="96.846" fill="#000" fill-opacity="0"/><line x1="1227.179" y1="828.667" x2="1227.179" y2="925.513" style="stroke:#181818;stroke-width:0.5;stroke-dasharray:5,5;"/></g><g><title>NotificationService</title><rect x="1344.944" y="123.197" width="8" height="664.821" fill="#000" fill-opacity="0"/><line x1="1348.444" y1="123.197" x2="1348.444" y2="788.018" style="stroke:#181818;stroke-width:0.5;stroke-dasharray:5,5;"/></g><line x1="1348.444" y1="788.018" x2="1348.444" y2="828.667" style="stroke:#181818;stroke-width:0.5;stroke-dasharray:1,4;"/><g><title>NotificationService</title><rect x="1344.944" y="828.667" width="8" height="96.846" fill="#000" fill-opacity="0"/><line x1="1348.444" y1="828.667" x2="1348.444" y2="925.513" style="stroke:#181818;stroke-width:0.5;stroke-dasharray:5,5;"/></g><g><title>MySQL</title><rect x="1569.054" y="123.197" width="8" height="664.821" fill="#000" fill-opacity="0"/><line x1="1572.554" y1="123.197" x2="1572.554" y2="788.018" style="stroke:#181818;stroke-width:0.5;stroke-dasharray:5,5;"/></g><line x1="1572.554" y1="788.018" x2="1572.554" y2="828.667" style="stroke:#181818;stroke-width:0.5;stroke-dasharray:1,4;"/><g><title>MySQL</title><rect x="1569.054" y="828.667" width="8" height="96.846" fill="#000" fill-opacity="0"/><line x1="1572.554" y1="828.667" x2="1572.554" y2="925.513" style="stroke:#181818;stroke-width:0.5;stroke-dasharray:5,5;"/></g><g><title>OutboxWorker</title><rect x="1866.854" y="123.197" width="8" height="664.821" fill="#000" fill-opacity="0"/><line x1="1870.354" y1="123.197" x2="1870.354" y2="788.018" style="stroke:#181818;stroke-width:0.5;stroke-dasharray:5,5;"/></g><line x1="1870.354" y1="788.018" x2="1870.354" y2="828.667" style="stroke:#181818;stroke-width:0.5;stroke-dasharray:1,4;"/><g><title>OutboxWorker</title><rect x="1866.854" y="828.667" width="8" height="96.846" fill="#000" fill-opacity="0"/><line x1="1870.354" y1="828.667" x2="1870.354" y2="925.513" style="stroke:#181818;stroke-width:0.5;stroke-dasharray:5,5;"/></g><g><title>SMTP</title><rect x="2094.607" y="123.197" width="8" height="664.821" fill="#000" fill-opacity="0"/><line x1="2098.107" y1="123.197" x2="2098.107" y2="788.018" style="stroke:#181818;stroke-width:0.5;stroke-dasharray:5,5;"/></g><line x1="2098.107" y1="788.018" x2="2098.107" y2="828.667" style="stroke:#181818;stroke-width:0.5;stroke-dasharray:1,4;"/><g><title>SMTP</title><rect x="2094.607" y="828.667" width="8" height="96.846" fill="#000" fill-opacity="0"/><line x1="2098.107" y1="828.667" x2="2098.107" y2="925.513" style="stroke:#181818;stroke-width:0.5;stroke-dasharray:5,5;"/></g><text x="10" y="120.23" fill="#000" font-size="14" textLength="28.793" font-family="Arial">Staff</text><ellipse cx="27.396" cy="55.599" rx="8" ry="8" fill="#E2E2F0" style="stroke:#181818;stroke-width:0.5;"/><path d="M27.396,63.599 L27.396,90.599 M14.396,71.599 L40.396,71.599 M27.396,90.599 L14.396,105.599 M27.396,90.599 L40.396,105.599" style="stroke:#181818;stroke-width:0.5;" fill="none"/><rect x="124.952" y="92.099" width="65.345" height="30.099" fill="#E2E2F0" style="stroke:#181818;stroke-width:0.5;" rx="2.5" ry="2.5"/><text x="131.952" y="112.23" fill="#000" font-size="14" textLength="51.345" font-family="Arial">Browser</text><rect x="413.827" y="92.099" width="103.482" height="30.099" fill="#E2E2F0" style="stroke:#181818;stroke-width:0.5;" rx="2.5" ry="2.5"/><text x="420.827" y="112.23" fill="#000" font-size="14" textLength="89.482" font-family="Arial">StaffController</text><rect x="621.288" y="92.099" width="174.303" height="30.099" fill="#E2E2F0" style="stroke:#181818;stroke-width:0.5;" rx="2.5" ry="2.5"/><text x="628.288" y="112.23" fill="#000" font-size="14" textLength="160.303" font-family="Arial">CourseApplicationService</text><rect x="888.532" y="92.099" width="141.634" height="30.099" fill="#E2E2F0" style="stroke:#181818;stroke-width:0.5;" rx="2.5" ry="2.5"/><text x="895.532" y="112.23" fill="#000" font-size="14" textLength="127.634" font-family="Arial">ApplicationEvaluator</text><rect x="1040.166" y="92.099" width="130.717" height="30.099" fill="#E2E2F0" style="stroke:#181818;stroke-width:0.5;" rx="2.5" ry="2.5"/><text x="1047.166" y="112.23" fill="#000" font-size="14" textLength="116.717" font-family="Arial">EntitlementService</text><rect x="1180.883" y="92.099" width="92.593" height="30.099" fill="#E2E2F0" style="stroke:#181818;stroke-width:0.5;" rx="2.5" ry="2.5"/><text x="1187.883" y="112.23" fill="#000" font-size="14" textLength="78.593" font-family="Arial">AuditService</text><rect x="1283.476" y="92.099" width="129.938" height="30.099" fill="#E2E2F0" style="stroke:#181818;stroke-width:0.5;" rx="2.5" ry="2.5"/><text x="1290.476" y="112.23" fill="#000" font-size="14" textLength="115.938" font-family="Arial">NotificationService</text><text x="1546.216" y="120.23" fill="#000" font-size="14" textLength="46.676" font-family="Arial">MySQL</text><path d="M1554.554,71.099 C1554.554,61.099 1572.554,61.099 1572.554,61.099 C1572.554,61.099 1590.554,61.099 1590.554,71.099 L1590.554,97.099 C1590.554,107.099 1572.554,107.099 1572.554,107.099 C1572.554,107.099 1554.554,107.099 1554.554,97.099 L1554.554,71.099" style="stroke:#181818;stroke-width:0.5;" fill="#E2E2F0"/><path d="M1554.554,71.099 C1554.554,81.099 1572.554,81.099 1572.554,81.099 C1572.554,81.099 1590.554,81.099 1590.554,71.099" style="stroke:#181818;stroke-width:0.5;" fill="none"/><rect x="1818.23" y="92.099" width="104.248" height="30.099" fill="#E2E2F0" style="stroke:#181818;stroke-width:0.5;" rx="2.5" ry="2.5"/><text x="1825.23" y="112.23" fill="#000" font-size="14" textLength="90.248" font-family="Arial">OutboxWorker</text><rect x="2071.663" y="92.099" width="52.89" height="30.099" fill="#E2E2F0" style="stroke:#181818;stroke-width:0.5;" rx="2.5" ry="2.5"/><text x="2078.663" y="112.23" fill="#000" font-size="14" textLength="38.89" font-family="Arial">SMTP</text><text x="10" y="938.645" fill="#000" font-size="14" textLength="28.793" font-family="Arial">Staff</text><ellipse cx="27.396" cy="950.112" rx="8" ry="8" fill="#E2E2F0" style="stroke:#181818;stroke-width:0.5;"/><path d="M27.396,958.112 L27.396,985.112 M14.396,966.112 L40.396,966.112 M27.396,985.112 L14.396,1000.112 M27.396,985.112 L40.396,1000.112" style="stroke:#181818;stroke-width:0.5;" fill="none"/><rect x="124.952" y="925.513" width="65.345" height="30.099" fill="#E2E2F0" style="stroke:#181818;stroke-width:0.5;" rx="2.5" ry="2.5"/><text x="131.952" y="945.645" fill="#000" font-size="14" textLength="51.345" font-family="Arial">Browser</text><rect x="413.827" y="925.513" width="103.482" height="30.099" fill="#E2E2F0" style="stroke:#181818;stroke-width:0.5;" rx="2.5" ry="2.5"/><text x="420.827" y="945.645" fill="#000" font-size="14" textLength="89.482" font-family="Arial">StaffController</text><rect x="621.288" y="925.513" width="174.303" height="30.099" fill="#E2E2F0" style="stroke:#181818;stroke-width:0.5;" rx="2.5" ry="2.5"/><text x="628.288" y="945.645" fill="#000" font-size="14" textLength="160.303" font-family="Arial">CourseApplicationService</text><rect x="888.532" y="925.513" width="141.634" height="30.099" fill="#E2E2F0" style="stroke:#181818;stroke-width:0.5;" rx="2.5" ry="2.5"/><text x="895.532" y="945.645" fill="#000" font-size="14" textLength="127.634" font-family="Arial">ApplicationEvaluator</text><rect x="1040.166" y="925.513" width="130.717" height="30.099" fill="#E2E2F0" style="stroke:#181818;stroke-width:0.5;" rx="2.5" ry="2.5"/><text x="1047.166" y="945.645" fill="#000" font-size="14" textLength="116.717" font-family="Arial">EntitlementService</text><rect x="1180.883" y="925.513" width="92.593" height="30.099" fill="#E2E2F0" style="stroke:#181818;stroke-width:0.5;" rx="2.5" ry="2.5"/><text x="1187.883" y="945.645" fill="#000" font-size="14" textLength="78.593" font-family="Arial">AuditService</text><rect x="1283.476" y="925.513" width="129.938" height="30.099" fill="#E2E2F0" style="stroke:#181818;stroke-width:0.5;" rx="2.5" ry="2.5"/><text x="1290.476" y="945.645" fill="#000" font-size="14" textLength="115.938" font-family="Arial">NotificationService</text><text x="1546.216" y="938.645" fill="#000" font-size="14" textLength="46.676" font-family="Arial">MySQL</text><path d="M1554.554,951.612 C1554.554,941.612 1572.554,941.612 1572.554,941.612 C1572.554,941.612 1590.554,941.612 1590.554,951.612 L1590.554,977.612 C1590.554,987.612 1572.554,987.612 1572.554,987.612 C1572.554,987.612 1554.554,987.612 1554.554,977.612 L1554.554,951.612" style="stroke:#181818;stroke-width:0.5;" fill="#E2E2F0"/><path d="M1554.554,951.612 C1554.554,961.612 1572.554,961.612 1572.554,961.612 C1572.554,961.612 1590.554,961.612 1590.554,951.612" style="stroke:#181818;stroke-width:0.5;" fill="none"/><rect x="1818.23" y="925.513" width="104.248" height="30.099" fill="#E2E2F0" style="stroke:#181818;stroke-width:0.5;" rx="2.5" ry="2.5"/><text x="1825.23" y="945.645" fill="#000" font-size="14" textLength="90.248" font-family="Arial">OutboxWorker</text><rect x="2071.663" y="925.513" width="52.89" height="30.099" fill="#E2E2F0" style="stroke:#181818;stroke-width:0.5;" rx="2.5" ry="2.5"/><text x="2078.663" y="945.645" fill="#000" font-size="14" textLength="38.89" font-family="Arial">SMTP</text><polygon points="145.625,148.146,155.625,152.146,145.625,156.146,149.625,152.146" fill="#181818" style="stroke:#181818;stroke-width:1;stroke-linejoin:miter;stroke-miterlimit:10;"/><line x1="27.396" y1="152.146" x2="151.625" y2="152.146" style="stroke:#181818;stroke-width:1;"/><text x="34.396" y="147.391" fill="#000" font-size="13" textLength="77.302" font-family="Arial">fill in the form</text><line x1="157.625" y1="196.043" x2="199.625" y2="196.043" style="stroke:#181818;stroke-width:1;"/><line x1="199.625" y1="196.043" x2="199.625" y2="209.043" style="stroke:#181818;stroke-width:1;"/><line x1="158.625" y1="209.043" x2="199.625" y2="209.043" style="stroke:#181818;stroke-width:1;"/><polygon points="168.625,205.043,158.625,209.043,168.625,213.043,164.625,209.043" fill="#181818" style="stroke:#181818;stroke-width:1;stroke-linejoin:miter;stroke-miterlimit:10;"/><text x="164.625" y="176.34" fill="#000" font-size="13" textLength="109.821" font-family="Arial">live eligibility check</text><text x="164.625" y="191.289" fill="#000" font-size="13" textLength="206.642" font-family="Arial">(POST /api/v1/applications/preview)</text><polygon points="145.625,233.992,155.625,237.992,145.625,241.992,149.625,237.992" fill="#181818" style="stroke:#181818;stroke-width:1;stroke-linejoin:miter;stroke-miterlimit:10;"/><line x1="27.396" y1="237.992" x2="151.625" y2="237.992" style="stroke:#181818;stroke-width:1;"/><text x="34.396" y="233.237" fill="#000" font-size="13" textLength="106.228" font-family="Arial">Submit application</text><polygon points="453.568,262.941,463.568,266.941,453.568,270.941,457.568,266.941" fill="#181818" style="stroke:#181818;stroke-width:1;stroke-linejoin:miter;stroke-miterlimit:10;"/><line x1="157.625" y1="266.941" x2="459.568" y2="266.941" style="stroke:#181818;stroke-width:1;"/><text x="164.625" y="262.186" fill="#000" font-size="13" textLength="283.943" font-family="Arial">POST /staff/applications (CSRF, clientRequestId)</text><polygon points="691.439,291.89,701.439,295.89,691.439,299.89,695.439,295.89" fill="#181818" style="stroke:#181818;stroke-width:1;stroke-linejoin:miter;stroke-miterlimit:10;"/><line x1="465.568" y1="295.89" x2="697.439" y2="295.89" style="stroke:#181818;stroke-width:1;"/><text x="472.568" y="291.135" fill="#000" font-size="13" textLength="213.872" font-family="Arial">submit(user, details, clientRequestId)</text><path d="M656.695,308.89 L656.695,332.89 L1623.695,332.89 L1623.695,318.89 L1613.695,308.89 L656.695,308.89" style="stroke:#181818;stroke-width:0.5;" fill="#FEFFDD"/><path d="M1613.695,308.89 L1613.695,318.89 L1623.695,318.89 L1613.695,308.89" style="stroke:#181818;stroke-width:0.5;" fill="#FEFFDD"/><text x="1030.524" y="326.083" fill="#000" font-size="13" textLength="210.945" font-family="Arial">one READ COMMITTED transaction</text><polygon points="1560.554,355.787,1570.554,359.787,1560.554,363.787,1564.554,359.787" fill="#181818" style="stroke:#181818;stroke-width:1;stroke-linejoin:miter;stroke-miterlimit:10;"/><line x1="713.439" y1="359.787" x2="1566.554" y2="359.787" style="stroke:#181818;stroke-width:1;"/><text x="720.439" y="355.032" fill="#000" font-size="13" textLength="173.367" font-family="Arial">SELECT users FOR UPDATE</text><polygon points="1560.554,384.736,1570.554,388.736,1560.554,392.736,1564.554,388.736" fill="#181818" style="stroke:#181818;stroke-width:1;stroke-linejoin:miter;stroke-miterlimit:10;"/><line x1="713.439" y1="388.736" x2="1566.554" y2="388.736" style="stroke:#181818;stroke-width:1;"/><text x="720.439" y="383.981" fill="#000" font-size="13" textLength="252.554" font-family="Arial">replayed request? (users + clientRequestId)</text><polygon points="947.349,428.633,957.349,432.633,947.349,436.633,951.349,432.633" fill="#181818" style="stroke:#181818;stroke-width:1;stroke-linejoin:miter;stroke-miterlimit:10;"/><line x1="713.439" y1="432.633" x2="953.349" y2="432.633" style="stroke:#181818;stroke-width:1;"/><text x="720.439" y="412.93" fill="#000" font-size="13" textLength="95.386" font-family="Arial">evaluate(details)</text><text x="720.439" y="427.878" fill="#000" font-size="13" textLength="226.91" font-family="Arial">(dates, holidays, overlap, days, budget)</text><polygon points="1093.524,457.582,1103.524,461.582,1093.524,465.582,1097.524,461.582" fill="#181818" style="stroke:#181818;stroke-width:1;stroke-linejoin:miter;stroke-miterlimit:10;"/><line x1="713.439" y1="461.582" x2="1099.524" y2="461.582" style="stroke:#181818;stroke-width:1;"/><text x="720.439" y="456.827" fill="#000" font-size="13" textLength="183.53" font-family="Arial">lockAccounts(years, ascending)</text><polygon points="1560.554,486.531,1570.554,490.531,1560.554,494.531,1564.554,490.531" fill="#181818" style="stroke:#181818;stroke-width:1;stroke-linejoin:miter;stroke-miterlimit:10;"/><line x1="1105.524" y1="490.531" x2="1566.554" y2="490.531" style="stroke:#181818;stroke-width:1;"/><text x="1112.524" y="485.776" fill="#000" font-size="13" textLength="255.036" font-family="Arial">SELECT training_entitlement FOR UPDATE</text><polygon points="947.349,515.479,957.349,519.479,947.349,523.479,951.349,519.479" fill="#181818" style="stroke:#181818;stroke-width:1;stroke-linejoin:miter;stroke-miterlimit:10;"/><line x1="713.439" y1="519.479" x2="953.349" y2="519.479" style="stroke:#181818;stroke-width:1;"/><text x="720.439" y="514.725" fill="#000" font-size="13" textLength="142.34" font-family="Arial">re-check inside the locks</text><polygon points="1560.554,544.428,1570.554,548.428,1560.554,552.428,1564.554,548.428" fill="#181818" style="stroke:#181818;stroke-width:1;stroke-linejoin:miter;stroke-miterlimit:10;"/><line x1="713.439" y1="548.428" x2="1566.554" y2="548.428" style="stroke:#181818;stroke-width:1;"/><text x="720.439" y="543.673" fill="#000" font-size="13" textLength="257.258" font-family="Arial">INSERT course_application, application_day</text><polygon points="1215.179,573.377,1225.179,577.377,1215.179,581.377,1219.179,577.377" fill="#181818" style="stroke:#181818;stroke-width:1;stroke-linejoin:miter;stroke-miterlimit:10;"/><line x1="713.439" y1="577.377" x2="1221.179" y2="577.377" style="stroke:#181818;stroke-width:1;"/><text x="720.439" y="572.622" fill="#000" font-size="13" textLength="115.572" font-family="Arial">record SUBMITTED</text><polygon points="1560.554,602.326,1570.554,606.326,1560.554,610.326,1564.554,606.326" fill="#181818" style="stroke:#181818;stroke-width:1;stroke-linejoin:miter;stroke-miterlimit:10;"/><line x1="1227.179" y1="606.326" x2="1566.554" y2="606.326" style="stroke:#181818;stroke-width:1;"/><text x="1234.179" y="601.571" fill="#000" font-size="13" textLength="118.504" font-family="Arial">INSERT audit_event</text><polygon points="1093.524,631.274,1103.524,635.274,1093.524,639.274,1097.524,635.274" fill="#181818" style="stroke:#181818;stroke-width:1;stroke-linejoin:miter;stroke-miterlimit:10;"/><line x1="713.439" y1="635.274" x2="1099.524" y2="635.274" style="stroke:#181818;stroke-width:1;"/><text x="720.439" y="630.52" fill="#000" font-size="13" textLength="141.616" font-family="Arial">post RESERVE per year</text><polygon points="1560.554,660.223,1570.554,664.223,1560.554,668.223,1564.554,664.223" fill="#181818" style="stroke:#181818;stroke-width:1;stroke-linejoin:miter;stroke-miterlimit:10;"/><line x1="1105.524" y1="664.223" x2="1566.554" y2="664.223" style="stroke:#181818;stroke-width:1;"/><text x="1112.524" y="659.468" fill="#000" font-size="13" textLength="137.287" font-family="Arial">INSERT training_ledger</text><polygon points="1336.444,689.172,1346.444,693.172,1336.444,697.172,1340.444,693.172" fill="#181818" style="stroke:#181818;stroke-width:1;stroke-linejoin:miter;stroke-miterlimit:10;"/><line x1="713.439" y1="693.172" x2="1342.444" y2="693.172" style="stroke:#181818;stroke-width:1;"/><text x="720.439" y="688.417" fill="#000" font-size="13" textLength="222.53" font-family="Arial">enqueue APPLICATION_SUBMITTED</text><polygon points="1560.554,718.121,1570.554,722.121,1560.554,726.121,1564.554,722.121" fill="#181818" style="stroke:#181818;stroke-width:1;stroke-linejoin:miter;stroke-miterlimit:10;"/><line x1="1348.444" y1="722.121" x2="1566.554" y2="722.121" style="stroke:#181818;stroke-width:1;"/><text x="1355.444" y="717.366" fill="#000" font-size="13" textLength="200.11" font-family="Arial">INSERT email_outbox (PENDING)</text><polygon points="476.568,747.069,466.568,751.069,476.568,755.069,472.568,751.069" fill="#181818" style="stroke:#181818;stroke-width:1;stroke-linejoin:miter;stroke-miterlimit:10;"/><line x1="470.568" y1="751.069" x2="702.439" y2="751.069" style="stroke:#181818;stroke-width:1;stroke-dasharray:2,2;"/><text x="482.568" y="746.314" fill="#000" font-size="13" textLength="102.61" font-family="Arial">reference number</text><polygon points="168.625,776.018,158.625,780.018,168.625,784.018,164.625,780.018" fill="#181818" style="stroke:#181818;stroke-width:1;stroke-linejoin:miter;stroke-miterlimit:10;"/><line x1="162.625" y1="780.018" x2="464.568" y2="780.018" style="stroke:#181818;stroke-width:1;stroke-dasharray:2,2;"/><text x="174.625" y="775.263" fill="#000" font-size="13" textLength="177.785" font-family="Arial">redirect to the application page</text><text x="1052.053" y="812.336" fill="#000" font-size="11" textLength="21.398" font-family="Arial">later</text><polygon points="1583.554,845.616,1573.554,849.616,1583.554,853.616,1579.554,849.616" fill="#181818" style="stroke:#181818;stroke-width:1;stroke-linejoin:miter;stroke-miterlimit:10;"/><line x1="1577.554" y1="849.616" x2="1869.354" y2="849.616" style="stroke:#181818;stroke-width:1;"/><text x="1589.554" y="844.861" fill="#000" font-size="13" textLength="273.8" font-family="Arial">lease due rows (FOR UPDATE SKIP LOCKED)</text><polygon points="2086.107,874.564,2096.107,878.564,2086.107,882.564,2090.107,878.564" fill="#181818" style="stroke:#181818;stroke-width:1;stroke-linejoin:miter;stroke-miterlimit:10;"/><line x1="1870.354" y1="878.564" x2="2092.107" y2="878.564" style="stroke:#181818;stroke-width:1;"/><text x="1877.354" y="873.81" fill="#000" font-size="13" textLength="203.753" font-family="Arial">send plain-text mail with sign-in link</text><polygon points="1583.554,903.513,1573.554,907.513,1583.554,911.513,1579.554,907.513" fill="#181818" style="stroke:#181818;stroke-width:1;stroke-linejoin:miter;stroke-miterlimit:10;"/><line x1="1577.554" y1="907.513" x2="1869.354" y2="907.513" style="stroke:#181818;stroke-width:1;"/><text x="1589.554" y="902.758" fill="#000" font-size="13" textLength="182.057" font-family="Arial">mark SENT, or schedule a retry</text><?plantuml-src RLJ1Sjf03BtxApGvmHJ2zDf3EyOu7IPWA7QQIsUOnPPXX_Mkkxk6yFVLhccmIKuOwqbwJtgovLOWfCskujPokGS6kMgqGM1rBNZEB5SoC4SkQwPP1UR02dLsm989Wvr8WILhX7rIqYQiGWWrPo88M6wLXjIoiWm8Q7dEQoOjF4orEXlK3y0CJFiXZuwea5P2N25H7n9vak6DOuhwn7FqsBIFxQ3Y4nCD8qOU5_TniRHk6XLAswsskAlM5BmN3_lnH5bUVa8g2GfcsOxHQ1-Mb_JNmh-TtKbVDNQdtbwLFbvrlzwDPfcj_Vjb4FWnmVWxJE4Rb5m8u1Bi0Q5KkWgc_oE2dn1Gy3tVSS7j1V83viS_Sh1UfHbCMCqdfw-JphhDfDPuudWUzbkqBkaPmpU9ADRMCWxUAmM3ADqyZI0NdCQwmRyD6ZilXa7aCbFADBxge24lZCX4bd5XFi6JZ_Y9MV9g81Nzg1EIhKOqGAgX9C8c3cSGhPRBUPR5Cx2QIUEIY6NgUdbW6Y_YA0FNpC3JQWClwrcOnHs4nbgm2nRqu7l_W46B_lAHay-AAGbRM-7Wodz8qwLj8mavAC4BTg4dnrYmcaJwlxkcsAEz5bcuFQdy6EPqVTAQmGMP9X0pESg2pcqOBEv5a48kARJ5csy_Q8gzfB5VETd3y0AzHLmpqv4zJz9uarrlVzlPuAYxxorHRvD2NpTNke3qPThEF0Zlop5tAriy4RERpbePIziYmEyOQjgYqzgHTyrzboUG1gNR_CGDMz826lh0hDUBUHHcyrMolN58xkjWHHlPAdzNC5Z7oMoU_FHZlrfNOuaQPOuWcsf7dGhic2tokDOP1IV95gpo8-pC1Mgsn-3nyH44PMcWf-3rdOX0T_G5KNQVF1ZSTWJfytmDYrNq7C-6RSRIdGJj7CY6N8ujlbbm2k3CxG4CtyinNRdWyjZfK35z95ia6RbCWw5j5mrzrXbnjlho3m00?></g></svg>